<svg width="16" height="16" viewBox="0 0 16 16" fill="none" xmlns="http://www.w3.org/2000/svg">
<g id="radix-icons:check">
<path id="Vector" fill-rule="evenodd" clip-rule="evenodd" d="M12.2331 3.97583C12.5414 4.17743 12.6278 4.59023 12.4262 4.8985L7.89286 11.8318C7.84004 11.9126 7.77031 11.981 7.68849 12.0322C7.60666 12.0834 7.5147 12.1162 7.41895 12.1283C7.3232 12.1405 7.22595 12.1318 7.13392 12.1027C7.0419 12.0736 6.95728 12.0248 6.88593 11.9598L3.9526 9.29317C3.82176 9.17421 3.74353 9.00815 3.73513 8.83151C3.72673 8.65488 3.78884 8.48214 3.9078 8.3513C4.02675 8.22046 4.19282 8.14224 4.36945 8.13383C4.54608 8.12543 4.71882 8.18754 4.84966 8.3065L7.20486 10.4473L11.3105 4.1689C11.4072 4.02097 11.5588 3.91753 11.7318 3.88132C11.9048 3.84512 12.0852 3.87911 12.2331 3.97583Z" fill="#7173FA"/>
</g>
</svg>
