<svg width="16" height="16" viewBox="0 0 16 16" fill="none" xmlns="http://www.w3.org/2000/svg">
<path d="M8.53449 4.32812H3.86613C2.84005 4.32812 2 5.16818 2 6.19425V13.0108C2 13.8808 2.62404 14.2528 3.3861 13.8268L5.74427 12.5127C5.99629 12.3747 6.40433 12.3747 6.65035 12.5127L9.00852 13.8268C9.77057 14.2528 10.3946 13.8808 10.3946 13.0108V6.19425C10.4006 5.16818 9.56057 4.32812 8.53449 4.32812Z" stroke="white" stroke-linecap="round" stroke-linejoin="round"/>
<path d="M10.4006 6.19425V13.0108C10.4006 13.8808 9.77658 14.2469 9.01452 13.8268L6.65635 12.5127C6.40433 12.3747 5.99629 12.3747 5.74427 12.5127L3.3861 13.8268C2.62404 14.2469 2 13.8808 2 13.0108V6.19425C2 5.16818 2.84005 4.32812 3.86613 4.32812H8.53449C9.56057 4.32812 10.4006 5.16818 10.4006 6.19425Z" stroke="white" stroke-linecap="round" stroke-linejoin="round"/>
<path d="M14.0022 3.86613V10.6826C14.0022 11.5527 13.3781 11.9187 12.6161 11.4987L10.4019 10.2626V6.19431C10.4019 5.16823 9.56187 4.32818 8.53579 4.32818H5.60156V3.86613C5.60156 2.84005 6.44162 2 7.46769 2H12.1361C13.1621 2 14.0022 2.84005 14.0022 3.86613Z" stroke="white" stroke-linecap="round" stroke-linejoin="round"/>
</svg>
