<svg width="16" height="16" viewBox="0 0 16 16" fill="none" xmlns="http://www.w3.org/2000/svg">
<path d="M8.59338 3.91992H3.4067C2.2667 3.91992 1.33337 4.85325 1.33337 5.99325V13.5666C1.33337 14.5333 2.02671 14.9466 2.87337 14.4732L5.49337 13.0132C5.77337 12.8599 6.22671 12.8599 6.50004 13.0132L9.12004 14.4732C9.9667 14.9466 10.66 14.5333 10.66 13.5666V5.99325C10.6667 4.85325 9.73338 3.91992 8.59338 3.91992Z" stroke="white" stroke-width="1.5" stroke-linecap="round" stroke-linejoin="round"/>
<path d="M10.6667 5.99325V13.5666C10.6667 14.5333 9.97338 14.9399 9.12671 14.4732L6.50671 13.0132C6.22671 12.8599 5.77337 12.8599 5.49337 13.0132L2.87337 14.4732C2.02671 14.9399 1.33337 14.5333 1.33337 13.5666V5.99325C1.33337 4.85325 2.2667 3.91992 3.4067 3.91992H8.59338C9.73338 3.91992 10.6667 4.85325 10.6667 5.99325Z" stroke="white" stroke-width="1.5" stroke-linecap="round" stroke-linejoin="round"/>
<path d="M14.6667 3.40658V10.9799C14.6667 11.9466 13.9734 12.3532 13.1267 11.8866L10.6667 10.5132V5.99325C10.6667 4.85325 9.73338 3.91992 8.59338 3.91992H5.33337V3.40658C5.33337 2.26658 6.2667 1.33325 7.4067 1.33325H12.5934C13.7334 1.33325 14.6667 2.26658 14.6667 3.40658Z" stroke="white" stroke-width="1.5" stroke-linecap="round" stroke-linejoin="round"/>
</svg>
