<svg width="24" height="25" viewBox="0 0 24 25" fill="none" xmlns="http://www.w3.org/2000/svg">
<path d="M16.19 2.75684H7.81C4.17 2.75684 2 4.92684 2 8.56684V16.9368C2 20.5868 4.17 22.7568 7.81 22.7568H16.18C19.82 22.7568 21.99 20.5868 21.99 16.9468V8.56684C22 4.92684 19.83 2.75684 16.19 2.75684ZM18 13.5068H12.75V18.7568C12.75 19.1668 12.41 19.5068 12 19.5068C11.59 19.5068 11.25 19.1668 11.25 18.7568V13.5068H6C5.59 13.5068 5.25 13.1668 5.25 12.7568C5.25 12.3468 5.59 12.0068 6 12.0068H11.25V6.75684C11.25 6.34684 11.59 6.00684 12 6.00684C12.41 6.00684 12.75 6.34684 12.75 6.75684V12.0068H18C18.41 12.0068 18.75 12.3468 18.75 12.7568C18.75 13.1668 18.41 13.5068 18 13.5068Z" fill="#9353D3"/>
</svg>
