<svg width="8" height="8" viewBox="0 0 8 8" fill="none" xmlns="http://www.w3.org/2000/svg">
<path d="M4.00033 0.666992C2.16366 0.666992 0.666992 2.16366 0.666992 4.00033C0.666992 5.83699 2.16366 7.33366 4.00033 7.33366C5.83699 7.33366 7.33366 5.83699 7.33366 4.00033C7.33366 2.16366 5.83699 0.666992 4.00033 0.666992ZM5.12033 4.76699C5.21699 4.86366 5.21699 5.02366 5.12033 5.12033C5.07033 5.17033 5.00699 5.19366 4.94366 5.19366C4.88033 5.19366 4.81699 5.17033 4.76699 5.12033L4.00033 4.35366L3.23366 5.12033C3.18366 5.17033 3.12033 5.19366 3.05699 5.19366C2.99366 5.19366 2.93033 5.17033 2.88033 5.12033C2.78366 5.02366 2.78366 4.86366 2.88033 4.76699L3.64699 4.00033L2.88033 3.23366C2.78366 3.13699 2.78366 2.97699 2.88033 2.88033C2.97699 2.78366 3.13699 2.78366 3.23366 2.88033L4.00033 3.64699L4.76699 2.88033C4.86366 2.78366 5.02366 2.78366 5.12033 2.88033C5.21699 2.97699 5.21699 3.13699 5.12033 3.23366L4.35366 4.00033L5.12033 4.76699Z" fill="#D4D4D8"/>
</svg>
