<svg width="32" height="32" viewBox="0 0 32 32" fill="none" xmlns="http://www.w3.org/2000/svg">
<path d="M22.668 6.66406C23.3752 6.66406 24.0535 6.94501 24.5536 7.44511C25.0537 7.94521 25.3346 8.62349 25.3346 9.33073V26.6641C25.3346 27.3713 25.0537 28.0496 24.5536 28.5497C24.0535 29.0498 23.3752 29.3307 22.668 29.3307H13.3346C12.6274 29.3307 11.9491 29.0498 11.449 28.5497C10.9489 28.0496 10.668 27.3713 10.668 26.6641H22.668V6.66406Z" fill="url(#paint0_linear_731_41580)"/>
<path d="M17.3346 5.33073H6.66797C6.66797 4.62349 6.94892 3.94521 7.44902 3.44511C7.94911 2.94501 8.62739 2.66406 9.33464 2.66406H17.3346C18.0419 2.66406 18.7202 2.94501 19.2203 3.44511C19.7204 3.94521 20.0013 4.62349 20.0013 5.33073V21.3307C20.0013 22.038 19.7204 22.7162 19.2203 23.2163C18.7202 23.7164 18.0419 23.9974 17.3346 23.9974V5.33073Z" fill="url(#paint1_linear_731_41580)"/>
<path d="M9.33464 21.3307H20.0013C20.0013 22.038 19.7204 22.7162 19.2203 23.2163C18.7202 23.7164 18.0419 23.9974 17.3346 23.9974H9.33464C8.62739 23.9974 7.94911 23.7164 7.44902 23.2163C6.94892 22.7162 6.66797 22.038 6.66797 21.3307V5.33073C6.66797 4.62349 6.94892 3.94521 7.44902 3.44511C7.94911 2.94501 8.62739 2.66406 9.33464 2.66406V21.3307Z" fill="url(#paint2_linear_731_41580)"/>
<defs>
<linearGradient id="paint0_linear_731_41580" x1="15.4793" y1="12.8899" x2="29.2749" y2="24.8429" gradientUnits="userSpaceOnUse">
<stop stop-color="#E5F3FF"/>
<stop offset="1" stop-color="#7173FA"/>
</linearGradient>
<linearGradient id="paint1_linear_731_41580" x1="11.0419" y1="8.52367" x2="23.9545" y2="19.3302" gradientUnits="userSpaceOnUse">
<stop stop-color="#E5F3FF"/>
<stop offset="1" stop-color="#7173FA"/>
</linearGradient>
<linearGradient id="paint2_linear_731_41580" x1="11.0419" y1="8.52367" x2="23.9545" y2="19.3302" gradientUnits="userSpaceOnUse">
<stop stop-color="#E5F3FF"/>
<stop offset="1" stop-color="#7173FA"/>
</linearGradient>
</defs>
</svg>
