<svg width="32" height="32" viewBox="0 0 32 32" fill="none" xmlns="http://www.w3.org/2000/svg">
<path d="M27.8624 10.2527L16.1125 16.5M16.1125 16.5L4.13745 10.2527M16.1125 16.5L16 28.9948M28 22.2677V10.7323C27.999 10.5657 27.9512 10.4022 27.8612 10.2585C27.7712 10.1147 27.6423 9.99564 27.4875 9.91336L16.4875 4.12226C16.3393 4.04216 16.1711 4 16 4C15.8289 4 15.6607 4.04216 15.5125 4.12226L4.5125 9.91336C4.35769 9.99564 4.22879 10.1147 4.13882 10.2585C4.04884 10.4022 4.00096 10.5657 4 10.7323V22.2677C4.00096 22.4343 4.04884 22.5978 4.13882 22.7415C4.22879 22.8853 4.35769 23.0044 4.5125 23.0866L15.5125 28.8777C15.6607 28.9578 15.8289 29 16 29C16.1711 29 16.3393 28.9578 16.4875 28.8777L27.4875 23.0866C27.6423 23.0044 27.7712 22.8853 27.8612 22.7415C27.9512 22.5978 27.999 22.4343 28 22.2677Z" stroke="url(#paint0_linear_731_41588)" stroke-width="2" stroke-linecap="round" stroke-linejoin="round"/>
<defs>
<linearGradient id="paint0_linear_731_41588" x1="11.873" y1="10.8667" x2="26.7732" y2="30.0205" gradientUnits="userSpaceOnUse">
<stop stop-color="#E5F3FF"/>
<stop offset="1" stop-color="#7173FA"/>
</linearGradient>
</defs>
</svg>
