<svg width="16" height="16" viewBox="0 0 16 16" fill="none" xmlns="http://www.w3.org/2000/svg">
<path d="M3.59993 1.40039H12.3999C13.1333 1.40039 13.7333 2.00039 13.7333 2.73372V4.20039C13.7333 4.73372 13.3999 5.40039 13.0666 5.73372L10.1999 8.26706C9.79993 8.60039 9.53327 9.26706 9.53327 9.80039V12.6671C9.53327 13.0671 9.2666 13.6004 8.93327 13.8004L7.99994 14.4004C7.13327 14.9337 5.93327 14.3337 5.93327 13.2671V9.73372C5.93327 9.26706 5.6666 8.66706 5.39994 8.33372L2.8666 5.66706C2.53327 5.33372 2.2666 4.73372 2.2666 4.33372V2.80039C2.2666 2.00039 2.8666 1.40039 3.59993 1.40039Z" stroke="#71717A" stroke-width="1.5" stroke-miterlimit="10" stroke-linecap="round" stroke-linejoin="round"/>
<path d="M7.28667 1.40039L4 6.66706" stroke="#71717A" stroke-width="1.5" stroke-miterlimit="10" stroke-linecap="round" stroke-linejoin="round"/>
</svg>
