<svg width="16" height="16" viewBox="0 0 16 16" fill="none" xmlns="http://www.w3.org/2000/svg">
<path d="M5.99967 14.6663H9.99967C13.333 14.6663 14.6663 13.333 14.6663 9.99967V5.99967C14.6663 2.66634 13.333 1.33301 9.99967 1.33301H5.99967C2.66634 1.33301 1.33301 2.66634 1.33301 5.99967V9.99967C1.33301 13.333 2.66634 14.6663 5.99967 14.6663Z" stroke="#71717A" stroke-width="1.5" stroke-linecap="round" stroke-linejoin="round"/>
<path d="M6.00033 6.66667C6.73671 6.66667 7.33366 6.06971 7.33366 5.33333C7.33366 4.59695 6.73671 4 6.00033 4C5.26395 4 4.66699 4.59695 4.66699 5.33333C4.66699 6.06971 5.26395 6.66667 6.00033 6.66667Z" stroke="#71717A" stroke-width="1.5" stroke-linecap="round" stroke-linejoin="round"/>
<path d="M1.78027 12.633L5.06694 10.4264C5.59361 10.073 6.35361 10.113 6.82694 10.5197L7.04694 10.713C7.56694 11.1597 8.40694 11.1597 8.92694 10.713L11.7003 8.33305C12.2203 7.88638 13.0603 7.88638 13.5803 8.33305L14.6669 9.26638" stroke="#71717A" stroke-width="1.5" stroke-linecap="round" stroke-linejoin="round"/>
</svg>
