<svg width="16" height="16" viewBox="0 0 16 16" fill="none" xmlns="http://www.w3.org/2000/svg">
<path d="M5.66634 12.6663H5.33301C2.66634 12.6663 1.33301 11.9997 1.33301 8.66634V5.33301C1.33301 2.66634 2.66634 1.33301 5.33301 1.33301H10.6663C13.333 1.33301 14.6663 2.66634 14.6663 5.33301V8.66634C14.6663 11.333 13.333 12.6663 10.6663 12.6663H10.333C10.1263 12.6663 9.92634 12.7663 9.79967 12.933L8.79967 14.2663C8.35967 14.853 7.63967 14.853 7.19967 14.2663L6.19967 12.933C6.09301 12.7863 5.84634 12.6663 5.66634 12.6663Z" stroke="#71717A" stroke-width="1.5" stroke-miterlimit="10" stroke-linecap="round" stroke-linejoin="round"/>
<path d="M4.66699 5.33301H11.3337" stroke="#71717A" stroke-width="1.5" stroke-linecap="round" stroke-linejoin="round"/>
<path d="M4.66699 8.66699H8.66699" stroke="#71717A" stroke-width="1.5" stroke-linecap="round" stroke-linejoin="round"/>
</svg>
