<svg width="16" height="16" viewBox="0 0 16 16" fill="none" xmlns="http://www.w3.org/2000/svg">
<path d="M3.33333 6.66699C2.6 6.66699 2 7.26699 2 8.00033C2 8.73366 2.6 9.33366 3.33333 9.33366C4.06667 9.33366 4.66667 8.73366 4.66667 8.00033C4.66667 7.26699 4.06667 6.66699 3.33333 6.66699Z" stroke="#71717A" stroke-width="1.5"/>
<path d="M12.6663 6.66699C11.933 6.66699 11.333 7.26699 11.333 8.00033C11.333 8.73366 11.933 9.33366 12.6663 9.33366C13.3997 9.33366 13.9997 8.73366 13.9997 8.00033C13.9997 7.26699 13.3997 6.66699 12.6663 6.66699Z" stroke="#71717A" stroke-width="1.5"/>
<path d="M8.00033 6.66699C7.26699 6.66699 6.66699 7.26699 6.66699 8.00033C6.66699 8.73366 7.26699 9.33366 8.00033 9.33366C8.73366 9.33366 9.33366 8.73366 9.33366 8.00033C9.33366 7.26699 8.73366 6.66699 8.00033 6.66699Z" stroke="#71717A" stroke-width="1.5"/>
</svg>
