<svg width="16" height="17" viewBox="0 0 16 17" fill="none" xmlns="http://www.w3.org/2000/svg">
<path d="M8.10671 7.74634C8.04004 7.73967 7.96004 7.73967 7.88671 7.74634C6.30004 7.69301 5.04004 6.39301 5.04004 4.79301C5.04004 3.15967 6.36004 1.83301 8.00004 1.83301C9.63337 1.83301 10.96 3.15967 10.96 4.79301C10.9534 6.39301 9.69337 7.69301 8.10671 7.74634Z" stroke="white" stroke-width="1.5" stroke-linecap="round" stroke-linejoin="round"/>
<path d="M4.77348 10.207C3.16014 11.287 3.16014 13.047 4.77348 14.1203C6.60681 15.347 9.61348 15.347 11.4468 14.1203C13.0601 13.0403 13.0601 11.2803 11.4468 10.207C9.62014 8.98699 6.61348 8.98699 4.77348 10.207Z" stroke="white" stroke-width="1.5" stroke-linecap="round" stroke-linejoin="round"/>
</svg>
