<svg width="16" height="17" viewBox="0 0 16 17" fill="none" xmlns="http://www.w3.org/2000/svg">
<path d="M8 11C6.62 11 5.5 9.88 5.5 8.5C5.5 7.12 6.62 6 8 6C9.38 6 10.5 7.12 10.5 8.5C10.5 9.88 9.38 11 8 11ZM8 7C7.17333 7 6.5 7.67333 6.5 8.5C6.5 9.32667 7.17333 10 8 10C8.82667 10 9.5 9.32667 9.5 8.5C9.5 7.67333 8.82667 7 8 7Z" fill="white"/>
<path d="M10.1397 15.2932C9.99967 15.2932 9.85967 15.2732 9.71968 15.2399C9.30634 15.1265 8.95967 14.8665 8.73967 14.4999L8.65967 14.3665C8.26634 13.6865 7.72634 13.6865 7.33301 14.3665L7.25968 14.4932C7.03967 14.8665 6.69301 15.1332 6.27967 15.2399C5.85967 15.3532 5.42634 15.2932 5.05967 15.0732L3.91301 14.4132C3.50634 14.1799 3.21301 13.7999 3.08634 13.3399C2.96634 12.8799 3.02634 12.4065 3.25967 11.9999C3.45301 11.6599 3.50634 11.3532 3.39301 11.1599C3.27967 10.9665 2.99301 10.8532 2.59967 10.8532C1.62634 10.8532 0.833008 10.0599 0.833008 9.08653V7.9132C0.833008 6.93987 1.62634 6.14653 2.59967 6.14653C2.99301 6.14653 3.27967 6.0332 3.39301 5.83987C3.50634 5.64653 3.45967 5.33987 3.25967 4.99987C3.02634 4.5932 2.96634 4.1132 3.08634 3.65987C3.20634 3.19987 3.49967 2.81987 3.91301 2.58653L5.06634 1.92653C5.81967 1.47987 6.81301 1.73987 7.26634 2.50653L7.34634 2.63987C7.73968 3.31987 8.27968 3.31987 8.67301 2.63987L8.74634 2.5132C9.19967 1.73987 10.193 1.47987 10.953 1.9332L12.0997 2.5932C12.5063 2.82653 12.7997 3.20653 12.9263 3.66653C13.0463 4.12653 12.9863 4.59987 12.753 5.00653C12.5597 5.34653 12.5063 5.6532 12.6197 5.84653C12.733 6.03987 13.0197 6.1532 13.413 6.1532C14.3863 6.1532 15.1797 6.94653 15.1797 7.91987V9.0932C15.1797 10.0665 14.3863 10.8599 13.413 10.8599C13.0197 10.8599 12.733 10.9732 12.6197 11.1665C12.5063 11.3599 12.553 11.6665 12.753 12.0065C12.9863 12.4132 13.053 12.8932 12.9263 13.3465C12.8063 13.8065 12.513 14.1865 12.0997 14.4199L10.9463 15.0799C10.693 15.2199 10.4197 15.2932 10.1397 15.2932ZM7.99967 12.8265C8.59301 12.8265 9.14634 13.1999 9.52634 13.8599L9.59967 13.9865C9.67967 14.1265 9.81301 14.2265 9.97301 14.2665C10.133 14.3065 10.293 14.2865 10.4263 14.2065L11.5797 13.5399C11.753 13.4399 11.8863 13.2732 11.9397 13.0732C11.993 12.8732 11.9663 12.6665 11.8663 12.4932C11.4863 11.8399 11.4397 11.1665 11.733 10.6532C12.0263 10.1399 12.633 9.84653 13.393 9.84653C13.8197 9.84653 14.1597 9.50653 14.1597 9.07987V7.90653C14.1597 7.48653 13.8197 7.13987 13.393 7.13987C12.633 7.13987 12.0263 6.84653 11.733 6.3332C11.4397 5.81987 11.4863 5.14653 11.8663 4.4932C11.9663 4.31987 11.993 4.1132 11.9397 3.9132C11.8863 3.7132 11.7597 3.5532 11.5863 3.44653L10.433 2.78653C10.1463 2.6132 9.76634 2.7132 9.59301 3.00653L9.51967 3.1332C9.13967 3.7932 8.58634 4.16653 7.99301 4.16653C7.39967 4.16653 6.84634 3.7932 6.46634 3.1332L6.39301 2.99987C6.22634 2.71987 5.85301 2.61987 5.56634 2.78653L4.41301 3.4532C4.23967 3.5532 4.10634 3.71987 4.05301 3.91987C3.99967 4.11987 4.02634 4.32653 4.12634 4.49987C4.50634 5.1532 4.55301 5.82653 4.25967 6.33987C3.96634 6.8532 3.35967 7.14653 2.59967 7.14653C2.17301 7.14653 1.83301 7.48653 1.83301 7.9132V9.08653C1.83301 9.50653 2.17301 9.8532 2.59967 9.8532C3.35967 9.8532 3.96634 10.1465 4.25967 10.6599C4.55301 11.1732 4.50634 11.8465 4.12634 12.4999C4.02634 12.6732 3.99967 12.8799 4.05301 13.0799C4.10634 13.2799 4.23301 13.4399 4.40634 13.5465L5.55967 14.2065C5.69967 14.2932 5.86634 14.3132 6.01967 14.2732C6.17967 14.2332 6.31301 14.1265 6.39967 13.9865L6.47301 13.8599C6.85301 13.2065 7.40634 12.8265 7.99967 12.8265Z" fill="white"/>
</svg>
