<svg width="32" height="33" viewBox="0 0 32 33" fill="none" xmlns="http://www.w3.org/2000/svg">
<path d="M20.4424 21.4775C20.1159 21.7081 19.7267 21.8307 19.3281 21.8294V21.8241C18.9518 21.8249 18.5836 21.7152 18.2692 21.5085C17.9547 21.3019 17.7079 21.0074 17.5593 20.6617L16.7422 18.1771C16.5536 17.6142 16.2365 17.1029 15.8162 16.6837C15.3958 16.2645 14.8837 15.9489 14.3202 15.7618L11.9503 14.9914C11.5678 14.8579 11.2373 14.6071 11.006 14.2746C10.7746 13.9422 10.6541 13.5451 10.6618 13.1402C10.6695 12.7352 10.8049 12.343 11.0487 12.0196C11.2926 11.6961 11.6323 11.458 12.0196 11.3391L14.3589 10.5794C14.9248 10.3911 15.4389 10.0734 15.8605 9.65155C16.2821 9.22972 16.5995 8.71538 16.7875 8.14939L17.558 5.78075C17.6923 5.40349 17.9409 5.07746 18.269 4.84794C18.5972 4.61843 18.9887 4.49684 19.3892 4.50006C19.7896 4.50329 20.1792 4.63117 20.5036 4.86594C20.828 5.10071 21.0713 5.4307 21.1996 5.81008L21.9767 8.19871C22.1641 8.74824 22.4738 9.24804 22.8825 9.66043C23.2912 10.0728 23.7882 10.387 24.336 10.5794L26.7046 11.3391C27.0848 11.4707 27.4142 11.718 27.6465 12.0464C27.8789 12.3748 28.0025 12.7678 28 13.1701C27.9975 13.5723 27.869 13.9637 27.6326 14.2892C27.3962 14.6147 27.0637 14.8579 26.682 14.9847L24.344 15.7432C23.7782 15.9328 23.2642 16.2514 22.8427 16.6738C22.4212 17.0963 22.1037 17.6109 21.9153 18.1771L21.1449 20.5431C21.0129 20.9203 20.7677 21.2469 20.4424 21.4775ZM20.941 15.8125C21.0896 15.6183 21.2513 15.4343 21.4248 15.262H21.4208C22.0645 14.6178 22.8495 14.1327 23.7135 13.8451L25.8462 13.1679L23.6988 12.4695C22.849 12.1752 22.0783 11.6895 21.4462 11.0499C20.8168 10.4062 20.3422 9.62761 20.0586 8.77321L19.3721 6.66449L18.6843 8.77988C18.3972 9.64224 17.9125 10.4256 17.2689 11.0673C16.6253 11.7091 15.8406 12.1915 14.9774 12.4761L12.818 13.1719L14.9374 13.8584C15.7989 14.1449 16.5818 14.6284 17.2237 15.2705C17.8655 15.9127 18.3488 16.6957 18.635 17.5573L19.3214 19.666L20.0079 17.5533C20.2175 16.9241 20.533 16.3354 20.941 15.8125ZM10.2228 28.2049C10.4769 28.0235 10.668 27.7672 10.7693 27.4718L11.2065 26.1308C11.2905 25.8752 11.4332 25.6428 11.6233 25.4523C11.8133 25.2618 12.0454 25.1184 12.3008 25.0338L13.6218 24.6033C13.9242 24.5012 14.1871 24.3072 14.3737 24.0484C14.5604 23.7895 14.6615 23.4788 14.6628 23.1597C14.6628 22.8426 14.5637 22.5334 14.3795 22.2753C14.1952 22.0172 13.935 21.8231 13.6351 21.7201L12.2942 21.2856C12.0447 21.1969 11.8189 21.0523 11.6341 20.8629C11.4492 20.6734 11.3103 20.4441 11.2278 20.1925L10.7959 18.8716C10.6943 18.5727 10.5024 18.3128 10.2466 18.1277C9.99087 17.9426 9.68394 17.8415 9.36826 17.8385C9.05258 17.8354 8.74375 17.9305 8.48444 18.1105C8.22513 18.2906 8.02816 18.5467 7.92076 18.8436L7.48222 20.1952C7.39645 20.4486 7.25312 20.6787 7.06348 20.8674C6.87383 21.0562 6.64304 21.1984 6.38921 21.2829L5.06693 21.7134C4.76211 21.8088 4.49504 21.9976 4.30359 22.2533C4.11213 22.5089 4.006 22.8183 4.00025 23.1376C3.9945 23.4569 4.08941 23.77 4.27154 24.0323C4.45366 24.2947 4.71376 24.493 5.01494 24.5993L6.36655 25.0378C6.62069 25.1236 6.85146 25.2672 7.04066 25.4573C7.22987 25.6475 7.37235 25.8789 7.4569 26.1335L7.8861 27.4518C7.99007 27.7583 8.18735 28.0249 8.45261 28.2115C8.71137 28.3955 9.02126 28.4938 9.33875 28.4926C9.65624 28.4914 9.96538 28.3908 10.2228 28.2049ZM11.5957 23.1624C11.0722 23.3489 10.5972 23.6504 10.2056 24.0446C9.81391 24.4388 9.51553 24.9157 9.33235 25.4404C9.14721 24.9178 8.84768 24.4431 8.45564 24.0511C8.0636 23.659 7.58895 23.3595 7.06634 23.1743C7.59355 22.9894 8.07277 22.6891 8.46898 22.2952C8.86519 21.9013 9.16836 21.4238 9.35634 20.8977C9.54037 21.4169 9.83674 21.8891 10.2243 22.2805C10.6118 22.672 11.081 22.9731 11.5984 23.1624H11.5957Z" fill="url(#paint0_linear_731_41594)"/>
<defs>
<linearGradient id="paint0_linear_731_41594" x1="20.127" y1="11.09" x2="5.98236" y2="30.036" gradientUnits="userSpaceOnUse">
<stop stop-color="#E5F3FF"/>
<stop offset="1" stop-color="#7173FA"/>
</linearGradient>
</defs>
</svg>
